<?xml version="1.0" encoding="utf-8"?>
<!-- Generator: Adobe Illustrator 25.2.0, SVG Export Plug-In . SVG Version: 6.00 Build 0)  -->
<svg version="1.1" id="Layer_1" xmlns="http://www.w3.org/2000/svg" xmlns:xlink="http://www.w3.org/1999/xlink" x="0px" y="0px"
	 viewBox="0 0 500 500" style="enable-background:new 0 0 500 500;" xml:space="preserve">
<style type="text/css">
	.st0{fill:#000;}
</style>
<g transform="matrix(2.940000057220459,0,0,2.940000057220459,389.16998291015625,333.260009765625)">
	<g transform="matrix(1,0,0,1,79.33499908447266,71.13200378417969)">
		<path class="st0" d="M-240.1-99.3"/>
	</g>
	<g transform="matrix(1,0,0,1,273.4599914550781,70.88999938964844)">
		<path class="st0" d="M-137.4-109.8c6.3-0.1,10.7-2.1,11.8-8c0.6-3.5-1.4-5.8-5.5-6c0,0-11.7-0.6-25.1-1.2c0,0-20-0.8-25.6-0.9
			c-5-0.1-9.8-0.2-13.2-0.1c-3.1,0.1-4.6,1.7-5.3,4.2c-0.6,2.6-1.2,6.3-1.4,10.1c-0.2,2.9,3,4.3,6.2,4.1c0,0,4-0.2,10.2-0.5
			c7.1-0.3,26.3-1.1,26.3-1.1C-152.1-109.4-144.6-109.6-137.4-109.8z"/>
	</g>
</g>
<g transform="matrix(2.940000057220459,0,0,2.940000057220459,389.16998291015625,333.260009765625)">
	<g transform="matrix(1,0,0,1,79.33499908447266,71.13200378417969)">
		<path class="st0" d="M-240.1-99.3"/>
	</g>
	<g transform="matrix(1,0,0,1,273.4599914550781,70.88999938964844)">
		<path class="st0" d="M-156.2-125c0,0,2.7-14.9,4.1-21c0.7-3-0.9-5.9-4.7-6.9c-3.7-0.9-12.3-1-15.2-0.6c-2.4,0.3-4.7,1.7-5.3,4.2
			c-1.4,6.2-2.8,13.7-4.5,23.4c-0.9,4.4-2.6,12.4-3.4,17.9c-1.2,5.5-3.4,20.1-4.3,29.2c-1.2,10.9-1.8,17.3-1.1,26.7
			c2.2,16.9,11,23.5,25.3,23.5c13.2,0,25.8-8.3,34.8-23.4c1.8-3,3.1-5.6,2-6.9c-2.6-3-7.6-4.5-8.9-2.1
			c-5.9,10.8-12.3,15.2-19.2,15.2c-5.5,0-9.9-3.3-9.9-12.7c0-13.7,7.7-50.6,7.7-50.6C-157.9-113.3-156.8-119.1-156.2-125z"/>
	</g>
</g>
<g transform="matrix(2.940000057220459,0,0,2.940000057220459,389.16998291015625,333.260009765625)">
	<g transform="matrix(1,0,0,1,79.33499908447266,71.13200378417969)">
		<path class="st0" d="M-240.1-99.3"/>
	</g>
	<g transform="matrix(1,0,0,1,273.4599914550781,70.88999938964844)">
		<path class="st0" d="M-185.2-108.1c-1.2,5.5-3.5,20.1-4.3,29.2c-5.6,19-17.3,32.9-27.4,32.9c-6.2,0-9.9-3.7-9.9-14.8
			c0-15.4,3.5-34.9,8.7-54.4c3.5-17.9,7.2-35.4,8.1-44.9c0.3-3.3,2.4-7.9-1.6-8.7c-7.2-1.4-14-1.2-18.8,0.3
			c-4.3,1.3-5.1,5.8-5.7,8.2c-2.5,11.5-6.5,31.9-9.3,49.8c-0.9,6.1-2.4,13.6-3.7,21c0,0-4,20.4-4,32.4c0,18.2,7.8,28.3,26.1,28.3
			c15.1,0,28.2-10.6,36.4-23.5c7.7-12.9,19.5-56.3,19.5-56.3C-164.3-108.7-191.4-107.8-185.2-108.1z"/>
	</g>
</g>
<g transform="matrix(2.940000057220459,0,0,2.940000057220459,389.16998291015625,333.260009765625)">
	<g transform="matrix(1,0,0,1,79.33499908447266,71.13200378417969)">
		<path class="st0" d="M-240.1-99.3"/>
	</g>
	<g transform="matrix(1,0,0,1,273.4599914550781,70.88999938964844)">
		<path class="st0" d="M-167.6-125.1c0,0,0.6-14.9,2-20.9c0.7-3-3.6-7.8-6.5-7.5c-2.4,0.3-4.7,1.7-5.3,4.2
			c-1.4,6.2-4.5,23.4-4.5,23.4l-3.4,17.9c0,0-3.5,20.1-4.3,29.2c-5.6,19-17.3,32.9-27.4,32.9c-6.2,0-9.9-3.7-9.9-14.8
			c0-15.4-26.3-8.2-26.3,3.7c0,18.2,7.8,28.3,26.1,28.3c15.1,0,28.2-10.6,36.4-23.5c12.6-23.7,19.8-55,19.8-55L-167.6-125.1z"/>
	</g>
</g>
<g transform="matrix(2.940000057220459,0,0,2.940000057220459,389.16998291015625,333.260009765625)">
	<g transform="matrix(1,0,0,1,79.33499908447266,71.13200378417969)">
		<path class="st0" d="M-240.1-99.3"/>
	</g>
	<g transform="matrix(1,0,0,1,273.4599914550781,70.88999938964844)">
		<path class="st0" d="M-226.3-121.8c7.3-17.5,0.6-48-4.1-46.5c-4.3,1.3-0.9,30-1.4,32.4c-2.5,11.5-4.1,12.4-13.6,25.6
			c-6.3,7.6-13.5,12.9-21.3,14.3c-21.9,2.3-25.2-7.8-17-21.9c12.8-22.1-4.1-14.4-12.5,0.1c-2.5,4.4-3.2,9.5-3.4,14.5
			c-0.2,6.3,0.8,14.2,9,20.1c8.9,6.3,16,5.1,22.6,3.8c7.2-1.5,13.4-4.9,18.8-9.8C-249.1-89.3-231.4-102.3-226.3-121.8z"/>
	</g>
</g>
<g transform="matrix(2.940000057220459,0,0,2.940000057220459,389.16998291015625,333.260009765625)">
	<g transform="matrix(1,0,0,1,79.33499908447266,71.13200378417969)">
		<path class="st0" d="M-240.1-99.3"/>
	</g>
	<g transform="matrix(1,0,0,1,273.4599914550781,70.88999938964844)">
		<path class="st0" d="M-218.1-115c7.3-17.5,11.5-37,11.5-45.8c0-3.3-1-7-5-7.8c-7.2-1.4-14-1.2-18.8,0.3c-4.3,1.3,1,8.7,0.5,11.1
			C-232.4-145.7-223.3-95.5-218.1-115z"/>
	</g>
</g>
<g transform="matrix(2.940000057220459,0,0,2.940000057220459,389.16998291015625,333.260009765625)">
	<g transform="matrix(1,0,0,1,79.33499908447266,71.13200378417969)">
		<path class="st0" d="M-240.1-99.3"/>
	</g>
	<g transform="matrix(1,0,0,1,273.4599914550781,70.88999938964844)">
		<path class="st0" d="M-315.3-43.3c-7.7,0-12.8-6.6-12.8-19.7c0-25.2,9-52.2,25-52.2c1.8,0,3.4,0.2,4.8,0.8
			c5.1,1.8,8.5,19.3,6.8,30.6C-294.9-61.7-304.7-43.3-315.3-43.3z M-266.7-96c-1.2-23.7-15-33.9-34-33.9c-33.3,0-54.6,29.7-54.6,63
			c0,27,14.7,38.3,36.2,38.3c25.3,0,44.2-18,51.2-50.9C-266.9-85.4-266.7-89.5-266.7-96z"/>
	</g>
</g>
<g transform="matrix(2.940000057220459,0,0,2.940000057220459,389.16998291015625,333.260009765625)">
	<g transform="matrix(1,0,0,1,79.33499908447266,71.13200378417969)">
		<path class="st0" d="M-173.5-169.8c-4.4,0-8.4,0.2-10.3,0.4c-3.9,0.4-5.2,4.1-4.9,7.7c4.1,52.5-7.5,113.6-20.6,113.6
			c-9.8,0-12.5-28.5-12.5-53.9c0-15,0.9-29.5,1.2-42.2c0.1-4.7-1.6-5.6-5-6c-5.2-0.6-8.9-0.6-14.1,0.5c-3.9,0.9-4.9,4.1-9,13.9
			c-20.6,49-40.5,88.4-40.5,88.4c-5.3-39.5,1.5-77.8,7.2-105.7c0.8-3.8-1-6.1-4.2-6.1c-6,0.1-15.1,0.3-19.2,3
			c-3.9,2.5-5.3,5.2-6.4,10.8c-6.4,32-10.5,72.1-4.1,103.2c1.4,6.7,2.9,8.3,5.8,10c2.8,1.8,15,3.3,19.7,3.3c5.4,0,10.3-1.4,14.3-8.4
			c8.6-14.8,15.6-29.6,28.6-58.1c1.3,37.1,6.6,66.2,32.7,66.2c34.6,0,56.9-86.3,56.9-127.9C-157.9-168-163.4-169.8-173.5-169.8z"/>
	</g>
</g>
</svg>
